<?xml version="1.0" encoding="UTF-8"?>
<svg id="Layer_2" data-name="Layer 2" xmlns="http://www.w3.org/2000/svg" viewBox="0 0 1372.19 427.23" preserveAspectRatio="X200Y200 meet">
  <defs>
    <style>
      .cls-1 {
        letter-spacing: 0em;
      }

      .cls-2 {
        fill: black;
      }

      .cls-3 {
        fill: black;
        font-family: Ubuntu-Medium, Ubuntu;
        font-size: 199.92px;
        font-weight: 500;
      }
    </style>
  </defs>
  <g id="Layer_1-2" data-name="Layer 1">
    <g>
      <path class="cls-2" d="m41.48,427.18c-.54-.5-.27-.91-.28-1.34,0,0,.11-1.29.11-1.29,1.1-12.72,2.35-26.1,3.79-38.75,7.83-69.11,20.22-137.68,39.39-204.69,11.84-40.59,25.74-81.15,45.87-118.9,9.2-16.83,19.43-33.38,33.76-46.88,7.22-6.63,16.33-12.98,26.51-15.23,3.23-.49,6.73.97,9.99,1.04,3.19.08,6.2.46,9.08,1.11,54.44,12.12,102.72,137.08,119.73,186.61,15.72,46.6,43.55,146.9,21.15,191.94-9.36,18.35-26.98,25.56-46.74,20.75-26.05-6.45-51.65-26.24-71.75-42.86-59.27-50.57-107.13-114.16-149.13-178.5C54.66,136.54,28.7,91.05,4.45,45.03c0,0-2.41-4.6-2.41-4.6,0,0-1.2-2.3-1.2-2.3,0,0-.6-1.15-.6-1.15-.08-.2-.24-.36-.25-.6,0-.25.14-.58.56-1.08,0,0,.28-.17.28-.17.64-.13,1.01-.1,1.22.03.21.13.27.34.41.51,0,0,.72,1.07.72,1.07.8,1.2,3.49,5.15,4.35,6.44,44.31,65.33,94.23,127.28,149.32,183.73,28.49,29.09,57.75,56.63,89.5,81.74,10.25,8.02,20.84,15.93,31.69,22.97,5.33,3.51,10.69,6.81,16,9.72,7.07,3.78,14.03,7.37,20.84,8.79.57.09.96.08.6.01-3.77-.31-8.58,2.15-11.35,4.92-.96,1.02-1.24,1.56-1.32,1.64,1.45-5.03,1.66-12.58,1.64-18.46-.29-18.71-3.11-38.01-6.28-56.67-9.38-52.05-22.85-104.89-41.61-154.52-7.1-18.48-14.95-36.47-24.78-53.43-6.52-11.1-19.86-32.09-32.06-35.05-.05.03-.12.41-.15.94-.03.31,0,.89-.14,1.13-1.06.19-2.34.52-3.59,1.19-35.19,20.48-72.8,107.87-88.11,147.12-29.13,75.23-50.03,153.84-64.57,233.23,0,0-.46,2.55-.46,2.55,0,0-.23,1.28-.23,1.28-.12.42.03.87-.62,1.22l-.4-.05h0Z"/>
      <text class="cls-3" transform="translate(379.51 265.44)"><tspan x="0" y="0">eronotes</tspan></text>
    </g>
  </g>
</svg>